<?xml version="1.0" standalone="yes"?>

<svg version="1.1" viewBox="0.0 0.0 631.8635170603675 644.5721784776903" fill="none" stroke="none" stroke-linecap="square" stroke-miterlimit="10" xmlns="http://www.w3.org/2000/svg" xmlns:xlink="http://www.w3.org/1999/xlink"><clipPath id="p.0"><path d="m0 0l631.8635 0l0 644.5722l-631.8635 0l0 -644.5722z" clip-rule="nonzero"></path></clipPath><g clip-path="url(#p.0)"><path fill="#ffffff" d="m0 0l631.8635 0l0 644.5722l-631.8635 0z" fill-rule="evenodd"></path><path fill="#666666" d="m251.72704 9.973753l-7.9553833 0.023622513l-15.666672 0.34383202l-15.372696 0.6640415l-15.049866 0.98162746l-14.78215 1.3254595l-14.464569 1.645669l-14.191605 1.989501l-13.874023 2.307087l-6.800522 1.3018379l-6.753273 1.3517056l-12.866142 2.8713913l-12.154861 3.1181107l-11.467186 3.364828l-10.72966 3.5853043l-7.564308 2.8477669l-4.837265 1.9658813l-4.6640434 2.0367432l-4.4934387 2.0866165l-4.296589 2.1364822l-4.125984 2.2099724l-1.989502 1.1312332l-1.963253 1.1286087l-3.708664 2.2834663l-3.4619408 2.307087l-3.2178497 2.3569527l-2.9448814 2.359581l-2.7270336 2.380577l-2.4803143 2.406826l-2.2073498 2.4304428l-1.9895 2.4566956l-1.7191601 2.4776917l-1.4724407 2.5065613l-1.2545948 2.5275574l-0.9816265 2.5538101l-0.73490906 2.5538025l-0.4934368 2.6036758l-0.24409485 2.6272964l-0.023622513 1.3254547l0 39.28872l0.023622513 1.3254623l0.24409485 2.6272888l0.4934368 2.601059l0.73490906 2.5538025l0.9816265 2.5538025l1.2545948 2.530182l1.4724407 2.5039368l1.7191601 2.4803162l1.9895 2.4566956l2.2073498 2.4304504l2.4803143 2.4068146l2.7270336 2.3805847l2.9448814 2.3569489l3.2178497 2.356964l3.4619408 2.3097076l3.708664 2.2834625l1.963253 1.1286011l1.989502 1.1286163l4.125984 2.2099762l4.296589 2.1364746l4.4934387 2.0892487l4.6640434 2.0367432l4.837265 1.9632568l7.564308 2.8503876l10.72966 3.5852966l11.467186 3.3622131l12.154861 3.118103l12.866142 2.8740234l6.753273 1.3490753l6.800522 1.3018494l13.874023 2.3097076l14.191605 1.9868774l14.464569 1.6456604l14.78215 1.32547l15.049866 0.9842529l15.372696 0.6614075l15.666672 0.34384155l7.9553833 0.026245117l7.955368 -0.026245117l15.666687 -0.34384155l15.370056 -0.6614075l15.052521 -0.9842529l14.782135 -1.32547l14.461945 -1.6456604l14.191589 -1.9868774l13.874023 -2.3097076l6.826782 -1.3018494l6.7270203 -1.3490753l12.86615 -2.8740234l12.154846 -3.118103l11.467194 -3.3622131l10.7323 -3.5852966l7.561676 -2.8503876l4.8372803 -1.9632568l4.664032 -2.0367432l4.496063 -2.0892487l4.29657 -2.1364746l4.1233826 -2.2099762l2.015747 -1.1286163l1.9396362 -1.1286011l3.7060242 -2.2834625l3.4619446 -2.3097076l3.2178345 -2.356964l2.9475098 -2.3569489l2.7244263 -2.3805847l2.4803162 -2.4068146l2.209961 -2.4304504l1.989502 -2.4566956l1.7191467 -2.4803162l1.4724426 -2.5039368l1.2519836 -2.530182l0.9816284 -2.5538025l0.7375183 -2.5538025l0.4908142 -2.601059l0.2441101 -2.6272888l0.026245117 -1.3254623l0 -39.28872l-0.026245117 -1.3254547l-0.2441101 -2.6272964l-0.4908142 -2.6036758l-0.7375183 -2.5538025l-0.9816284 -2.5538101l-1.2519836 -2.5275574l-1.4724426 -2.5065613l-1.7191467 -2.4776917l-1.989502 -2.4566956l-2.209961 -2.4304428l-2.4803162 -2.406826l-2.7244263 -2.380577l-2.9475098 -2.359581l-3.2178345 -2.3569527l-3.4619446 -2.307087l-3.7060242 -2.2834663l-1.9396362 -1.1286087l-2.015747 -1.1312332l-4.1233826 -2.2099724l-4.29657 -2.1364822l-4.496063 -2.0866165l-4.664032 -2.0367432l-4.8372803 -1.9658813l-7.561676 -2.8477669l-10.7323 -3.5853043l-11.467194 -3.364828l-12.154846 -3.1181107l-12.86615 -2.8713913l-6.7270203 -1.3517056l-6.826782 -1.3018379l-13.874023 -2.307087l-14.191589 -1.989501l-14.461945 -1.645669l-14.782135 -1.3254595l-15.052521 -0.98162746l-15.370056 -0.6640415l-15.666687 -0.34383202l-7.955368 -0.023622513zm-235.72441 183.54593l0 52.178482l0.023622513 1.3254547l0.24409485 2.627304l0.4934368 2.6036682l0.73490906 2.5538025l0.9816265 2.5538177l1.2545948 2.530182l1.4724407 2.5039368l1.7191601 2.4803162l1.9895 2.454071l2.2073498 2.4304504l2.4803143 2.4067993l2.7270336 2.3832092l2.9448814 2.356964l3.2178497 2.356964l3.4619408 2.3070679l3.708664 2.2834778l1.963253 1.1312256l1.989502 1.1286011l4.125984 2.2099915l4.296589 2.1364746l4.4934387 2.086609l4.6640434 2.0393677l4.837265 1.9632568l7.564308 2.8477783l10.72966 3.5852966l11.467186 3.3648376l12.154861 3.118103l12.866142 2.8740234l6.753273 1.34906l6.800522 1.3018494l13.874023 2.3070984l14.191605 1.989502l14.464569 1.6456604l14.78215 1.32547l15.049866 0.9815979l15.372696 0.6640625l15.666672 0.34381104l7.9553833 0.023651123l7.955368 -0.023651123l15.666687 -0.34381104l15.370056 -0.6640625l15.052521 -0.9815979l14.782135 -1.32547l14.461945 -1.6456604l14.191589 -1.989502l13.874023 -2.3070984l6.826782 -1.3018494l6.7270203 -1.34906l12.86615 -2.8740234l12.154846 -3.118103l11.467194 -3.3648376l10.7323 -3.5852966l7.561676 -2.8477783l4.8372803 -1.9632568l4.664032 -2.0393677l4.496063 -2.086609l4.29657 -2.1364746l4.1233826 -2.2099915l2.015747 -1.1286011l1.9396362 -1.1312256l3.7060242 -2.2834778l3.4619446 -2.3070679l3.2178345 -2.356964l2.9475098 -2.356964l2.7244263 -2.3832092l2.4803162 -2.4067993l2.209961 -2.4304504l1.989502 -2.454071l1.7191467 -2.4803162l1.4724426 -2.5039368l1.2519836 -2.530182l0.9816284 -2.5538177l0.7375183 -2.5538025l0.4908142 -2.6036682l0.2441101 -2.627304l0.026245117 -1.3254547l0 -52.178482l-2.309723 1.5957947l-4.761139 3.1443634l-4.9868774 3.0183716l-5.181122 2.9238892l-5.4015503 2.8241425l-5.6220703 2.724411l-5.818878 2.6509247l-6.015747 2.530182l-6.238861 2.4304352l-6.433075 2.3333435l-6.653534 2.259842l-6.876648 2.13385l-7.070862 2.039383l-7.2677 1.939621l-7.4881897 1.8425293l-7.687683 1.7664032l-3.9291382 0.8346405l-3.9763794 0.8110199l-7.981598 1.545929l-12.078766 2.1364899l-16.404175 2.4803162l-16.695557 2.0629883l-16.992126 1.6456757l-17.312317 1.2283478l-17.580078 0.8346405l-17.900238 0.41732788l-9.060379 0.023620605l-9.060364 -0.023620605l-17.900269 -0.41732788l-17.582672 -0.8346405l-17.309723 -1.2283478l-16.992111 -1.6456757l-16.698166 -2.0629883l-16.40158 -2.4803162l-12.08136 -2.1364899l-7.9816284 -1.545929l-3.9527588 -0.8110199l-3.9527512 -0.8346405l-7.6850433 -1.7664032l-7.490814 -1.8425293l-7.2677155 -1.939621l-7.0708694 -2.039383l-6.8766403 -2.13385l-6.6535416 -2.259842l-6.433071 -2.3333435l-6.2362175 -2.4304352l-6.015751 -2.530182l-5.8188972 -2.6509247l-5.624672 -2.724411l-5.401573 -2.8241425l-5.1811028 -2.9238892l-4.984253 -3.0183716l-4.7637787 -3.1443634l-2.307087 -1.5957947zm0 117.863525l0 52.178467l0.023622513 1.32547l0.24409485 2.6272888l0.4934368 2.6036682l0.73490906 2.5538025l0.9816265 2.5538025l1.2545948 2.527588l1.4724407 2.5039368l1.7191601 2.4802856l1.9895 2.4566956l2.2073498 2.4304504l2.4803143 2.4068298l2.7270336 2.3805847l2.9448814 2.356964l3.2178497 2.3569336l3.4619408 2.309723l3.708664 2.2834473l1.963253 1.1286316l1.989502 1.1312256l4.125984 2.209961l4.296589 2.1338806l4.4934387 2.0892334l4.6640434 2.0367432l4.837265 1.9658813l7.564308 2.8477783l10.72966 3.5852966l11.467186 3.3621826l12.154861 3.120758l12.866142 2.8713684l6.753273 1.3517151l6.800522 1.2992249l13.874023 2.3096924l14.191605 1.989502l14.464569 1.6430664l14.78215 1.328064l15.049866 0.9816284l15.372696 0.661438l15.666672 0.34381104l7.9553833 0.026245117l7.955368 -0.026245117l15.666687 -0.34381104l15.370056 -0.661438l15.052521 -0.9816284l14.782135 -1.328064l14.461945 -1.6430664l14.191589 -1.989502l13.874023 -2.3096924l6.826782 -1.2992249l6.7270203 -1.3517151l12.86615 -2.8713684l12.154846 -3.120758l11.467194 -3.3621826l10.7323 -3.5852966l7.561676 -2.8477783l4.8372803 -1.9658813l4.664032 -2.0367432l4.496063 -2.0892334l4.29657 -2.1338806l4.1233826 -2.209961l2.015747 -1.1312256l1.9396362 -1.1286316l3.7060242 -2.2834473l3.4619446 -2.309723l3.2178345 -2.3569336l2.9475098 -2.356964l2.7244263 -2.3805847l2.4803162 -2.4068298l2.209961 -2.4304504l1.989502 -2.4566956l1.7191467 -2.4802856l1.4724426 -2.5039368l1.2519836 -2.527588l0.9816284 -2.5538025l0.7375183 -2.5538025l0.4908142 -2.6036682l0.2441101 -2.6272888l0.026245117 -1.32547l0 -52.178467l-2.309723 1.5957947l-4.761139 3.1417236l-4.9868774 3.020996l-5.181122 2.9212646l-5.4015503 2.8241577l-5.6220703 2.7270203l-5.818878 2.65094l-6.015747 2.530182l-6.238861 2.43042l-6.433075 2.330719l-6.653534 2.2598572l-6.876648 2.1364746l-7.070862 2.0393677l-7.2677 1.9396362l-7.4881897 1.8399048l-7.687683 1.7690125l-3.9291382 0.83465576l-3.9763794 0.81100464l-7.981598 1.545929l-12.078766 2.1365051l-16.404175 2.4803162l-16.695557 2.0629883l-16.992126 1.6430359l-17.312317 1.228363l-17.580078 0.83462524l-17.900238 0.41732788l-9.060379 0.026245117l-9.060364 -0.026245117l-17.900269 -0.41732788l-17.582672 -0.83462524l-17.309723 -1.228363l-16.992111 -1.6430359l-16.698166 -2.0629883l-16.40158 -2.4803162l-12.08136 -2.1365051l-7.9816284 -1.545929l-3.9527588 -0.81100464l-3.9527512 -0.83465576l-7.6850433 -1.7690125l-7.490814 -1.8399048l-7.2677155 -1.9396362l-7.0708694 -2.0393677l-6.8766403 -2.1364746l-6.6535416 -2.2598572l-6.433071 -2.330719l-6.2362175 -2.43042l-6.015751 -2.530182l-5.8188972 -2.65094l-5.624672 -2.7270203l-5.401573 -2.8241577l-5.1811028 -2.9212646l-4.984253 -3.020996l-4.7637787 -3.1417236l-2.307087 -1.5957947zm0 117.86087l0 52.178497l0.023622513 1.3280945l0.24409485 2.6272888l0.4934368 2.6010437l0.73490906 2.5538025l0.9816265 2.5538025l1.2545948 2.530182l1.4724407 2.5039368l1.7191601 2.4803162l1.9895 2.454071l2.2073498 2.433075l2.4803143 2.4042053l2.7270336 2.3832092l2.9448814 2.356964l3.2178497 2.3569336l3.4619408 2.3070679l3.708664 2.2835083l1.963253 1.1312256l1.989502 1.1286011l4.125984 2.209961l4.296589 2.1364746l4.4934387 2.086609l4.6640434 2.0393677l4.837265 1.9632568l7.564308 2.8477783l10.72966 3.5853271l11.467186 3.3648071l12.154861 3.118103l12.866142 2.8740234l6.753273 1.34906l6.800522 1.3018799l13.874023 2.3070679l14.191605 1.989502l14.464569 1.6456909l14.78215 1.3254395l15.049866 0.9816284l15.372696 0.6640625l15.666672 0.34381104l7.9553833 0.023620605l7.955368 -0.023620605l15.666687 -0.34381104l15.370056 -0.6640625l15.052521 -0.9816284l14.782135 -1.3254395l14.461945 -1.6456909l14.191589 -1.989502l13.874023 -2.3070679l6.826782 -1.3018799l6.7270203 -1.34906l12.86615 -2.8740234l12.154846 -3.118103l11.467194 -3.3648071l10.7323 -3.5853271l7.561676 -2.8477783l4.8372803 -1.9632568l4.664032 -2.0393677l4.496063 -2.086609l4.29657 -2.1364746l4.1233826 -2.209961l2.015747 -1.1286011l1.9396362 -1.1312256l3.7060242 -2.2835083l3.4619446 -2.3070679l3.2178345 -2.3569336l2.9475098 -2.356964l2.7244263 -2.3832092l2.4803162 -2.4042053l2.209961 -2.433075l1.989502 -2.454071l1.7191467 -2.4803162l1.4724426 -2.5039368l1.2519836 -2.530182l0.9816284 -2.5538025l0.7375183 -2.5538025l0.4908142 -2.6010437l0.2441101 -2.6272888l0.026245117 -1.3280945l0 -52.178497l-2.309723 1.5958252l-4.761139 3.1443481l-4.9868774 3.020996l-5.181122 2.9212646l-5.4015503 2.8241577l-5.6220703 2.7243958l-5.818878 2.6509094l-6.015747 2.530182l-6.238861 2.4304504l-6.433075 2.3333435l-6.653534 2.2598267l-6.876648 2.1365051l-7.070862 2.0367432l-7.2677 1.9396362l-7.4881897 1.8424988l-7.687683 1.7664185l-3.9291382 0.83724976l-3.9763794 0.80841064l-7.981598 1.5485535l-12.078766 2.1364746l-16.404175 2.4776917l-16.695557 2.0630188l-16.992126 1.6456604l-17.312317 1.2283325l-17.580078 0.83465576l-17.900238 0.41732788l-9.060379 0.023620605l-9.060364 -0.023620605l-17.900269 -0.41732788l-17.582672 -0.83465576l-17.309723 -1.2283325l-16.992111 -1.6456604l-16.698166 -2.0630188l-16.40158 -2.4776917l-12.08136 -2.1364746l-7.9816284 -1.5485535l-3.9527588 -0.80841064l-3.9527512 -0.83724976l-7.6850433 -1.7664185l-7.490814 -1.8424988l-7.2677155 -1.9396362l-7.0708694 -2.0367432l-6.8766403 -2.1365051l-6.6535416 -2.2598267l-6.433071 -2.3333435l-6.2362175 -2.4304504l-6.015751 -2.530182l-5.8188972 -2.6509094l-5.624672 -2.7243958l-5.401573 -2.8241577l-5.1811028 -2.9212646l-4.984253 -3.020996l-4.7637787 -3.1443481l-2.307087 -1.5958252z" fill-rule="evenodd"></path><path fill="#ffffff" d="m216.0 444.0l0 0c0 -121.502655 98.497345 -220.0 220.0 -220.0l0 0c58.347626 0 114.30548 23.178497 155.56348 64.43649c41.257996 41.258026 64.43652 97.21588 64.43652 155.5635l0 0c0 121.502625 -98.497375 220.0 -220.0 220.0l0 0c-121.502655 0 -220.0 -98.497375 -220.0 -220.0z" fill-rule="evenodd"></path><path fill="#4a86e8" d="m256.0315 452.0l0 0c0 -99.411255 80.588745 -180.0 180.0 -180.0l0 0c47.738983 0 93.522644 18.964233 127.279236 52.720764c33.75653 33.75656 52.720764 79.54025 52.720764 127.279236l0 0c0 99.411255 -80.588745 180.0 -180.0 180.0l0 0c-99.411255 0 -180.0 -80.588745 -180.0 -180.0zm63.255615 0l0 0c0 64.476135 52.26825 116.744385 116.744385 116.744385c64.476166 0 116.744385 -52.26825 116.744385 -116.744385c0 -64.476166 -52.26822 -116.744385 -116.744385 -116.744385l0 0c-64.476135 0 -116.744385 52.26822 -116.744385 116.744385z" fill-rule="evenodd"></path><path fill="#ffffff" d="m379.24408 243.2126l42.31787 103.25694l-78.30502 78.30502l-103.25693 -42.31787z" fill-rule="evenodd"></path><path fill="#4a86e8" d="m435.2126 376.0l-107.18109 -72.0l107.18109 -72.0z" fill-rule="evenodd"></path></g></svg>

